<?xml version="1.0" encoding="UTF-8"?>
<svg xmlns="http://www.w3.org/2000/svg" width="1200" height="3000" viewBox="0 0 1200 3000">
  <rect width="1200" height="3000" fill="white"/>
  <rect x="0.0" y="0.0" width="100.0" height="100.0" fill="rgb(255,255,255)"/>
  <text x="48.0" y="12.1" font-size="14.2" fill="rgb(49,94,251))">新闻</text>
  <rect x="48.0" y="13.2" width="1154.0" height="1.0" fill="none" stroke="rgb(49,94,251)" stroke-width="1.0"/>
  <text x="48.0" y="25.5" font-size="19.2" fill="rgb(49,94,251))">hao123</text>
  <rect x="48.0" y="27.4" width="1154.0" height="1.0" fill="none" stroke="rgb(49,94,251)" stroke-width="1.0"/>
  <text x="48.0" y="39.7" font-size="19.2" fill="rgb(49,94,251))">地图</text>
  <rect x="48.0" y="41.6" width="1154.0" height="1.0" fill="none" stroke="rgb(49,94,251)" stroke-width="1.0"/>
  <text x="48.0" y="53.9" font-size="19.2" fill="rgb(49,94,251))">贴吧</text>
  <rect x="48.0" y="55.8" width="1154.0" height="1.0" fill="none" stroke="rgb(49,94,251)" stroke-width="1.0"/>
  <text x="48.0" y="68.1" font-size="19.2" fill="rgb(49,94,251))">视频</text>
  <rect x="48.0" y="70.0" width="1154.0" height="1.0" fill="none" stroke="rgb(49,94,251)" stroke-width="1.0"/>
  <text x="48.0" y="82.3" font-size="19.2" fill="rgb(49,94,251))">图片</text>
  <rect x="48.0" y="84.2" width="1154.0" height="1.0" fill="none" stroke="rgb(49,94,251)" stroke-width="1.0"/>
  <text x="48.0" y="96.5" font-size="19.2" fill="rgb(49,94,251))">网盘</text>
  <rect x="48.0" y="98.4" width="1154.0" height="1.0" fill="none" stroke="rgb(49,94,251)" stroke-width="1.0"/>
  <text x="48.0" y="110.7" font-size="19.2" fill="rgb(49,94,251))">文库</text>
  <rect x="48.0" y="112.6" width="1154.0" height="1.0" fill="none" stroke="rgb(49,94,251)" stroke-width="1.0"/>
  <text x="48.0" y="124.9" font-size="19.2" fill="rgb(49,94,251))">文心</text>
  <rect x="48.0" y="126.8" width="1154.0" height="1.0" fill="none" stroke="rgb(49,94,251)" stroke-width="1.0"/>
  <text x="48.0" y="139.1" font-size="19.2" fill="rgb(49,94,251))">搭子DuMate</text>
  <rect x="48.0" y="141.0" width="1154.0" height="1.0" fill="none" stroke="rgb(49,94,251)" stroke-width="1.0"/>
  <text x="48.0" y="153.3" font-size="19.2" fill="rgb(49,94,251))">更多</text>
  <rect x="48.0" y="155.2" width="16.0" height="1.0" fill="none" stroke="rgb(49,94,251)" stroke-width="1.0"/>
  <rect x="994.0" y="430.0" width="212.0" height="32.0" fill="rgb(241,243,253)"/>
  <text x="994.0" y="456.3" font-size="19.2" fill="rgb(49,94,251))">查看全部百度产品 &gt;</text>
  <rect x="994.0" y="458.2" width="80.0" height="1.0" fill="none" stroke="rgb(49,94,251)" stroke-width="1.0"/>
  <text x="418.0" y="35.3" font-size="19.2" fill="rgb(49,94,251))">设置</text>
  <rect x="432.0" y="56.2" width="48.0" height="24.0" fill="rgb(49,94,251)"/>
  <text x="432.0" y="72.5" font-size="19.2" fill="rgb(0,0,0))">登录</text>
  <rect x="432.0" y="74.4" width="48.0" height="1.0" fill="none" stroke="rgb(0,0,0)" stroke-width="1.0"/>
  <rect x="0.0" y="185.0" width="100.0" height="73.4" fill="none" stroke="rgb(0,0,0)" stroke-width="1.5"/>
  <rect x="68.0" y="229.0" width="9.0" height="20.4" fill="rgb(255,255,255)"/>
  <rect x="0.0" y="185.0" width="100.0" height="38.0" fill="rgb(239,242,254)"/>
  <rect x="50.0" y="185.0" width="20.0" height="38.0" fill="rgb(0,0,0)"/>
  <rect x="19.0" y="464.0" width="100.0" height="100.0" fill="#ddd" stroke="#999"/>
  <text x="24.0" y="514.0" font-size="12" fill="#666">[img]</text>
  <text x="19.0" y="480.3" font-size="19.2" fill="rgb(49,94,251))"></text>
  <rect x="25.0" y="545.0" width="353.0" height="16.0" fill="rgb(255,102,0)"/>
  <text x="27.0" y="558.6" font-size="16.0" fill="rgb(255,255,255))">热</text>
  <rect x="25.0" y="581.0" width="353.0" height="16.0" fill="rgb(255,102,0)"/>
  <text x="27.0" y="594.6" font-size="16.0" fill="rgb(255,255,255))">热</text>
  <rect x="25.0" y="617.0" width="353.0" height="16.0" fill="rgb(255,102,0)"/>
  <text x="27.0" y="630.6" font-size="16.0" fill="rgb(255,255,255))">热</text>
  <rect x="25.0" y="653.0" width="353.0" height="16.0" fill="rgb(255,102,0)"/>
  <text x="27.0" y="666.6" font-size="16.0" fill="rgb(255,255,255))">热</text>
  <rect x="25.0" y="761.0" width="353.0" height="16.0" fill="rgb(255,102,0)"/>
  <text x="27.0" y="774.6" font-size="16.0" fill="rgb(255,255,255))">热</text>
  <rect x="25.0" y="797.0" width="353.0" height="16.0" fill="rgb(255,102,0)"/>
  <text x="27.0" y="810.6" font-size="16.0" fill="rgb(255,255,255))">热</text>
  <rect x="0.0" y="33.0" width="100.0" height="40.0" fill="rgb(255,255,255)"/>
  <text x="65.0" y="46.2" font-size="14.4" fill="rgb(187,187,187))">关于百</text>
  <text x="65.0" y="46.2" font-size="14.4" fill="rgb(187,187,187))">About</text>
  <text x="65.0" y="46.2" font-size="14.4" fill="rgb(187,187,187))">使用百度前</text>
  <text x="65.0" y="46.2" font-size="14.4" fill="rgb(187,187,187))">帮助中</text>
  <text x="65.0" y="46.2" font-size="14.4" fill="rgb(187,187,187))">企业推</text>
  <text x="65.0" y="46.2" font-size="14.4" fill="rgb(187,187,187))">京公网安备1100000200</text>
  <text x="65.0" y="46.2" font-size="14.4" fill="rgb(187,187,187))">京ICP证0301</text>
  <text x="65.0" y="50.3" font-size="19.2" fill="rgb(187,187,187))">互联网新闻信息服务许可证11220180008</text>
  <text x="65.0" y="50.3" font-size="19.2" fill="rgb(187,187,187))">网络文化经营许可证： 京网文〔2023〕1034-029号</text>
  <text x="65.0" y="46.2" font-size="14.4" fill="rgb(187,187,187))">信息网络传播视听节目许可证 0110516</text>
  <text x="65.0" y="50.3" font-size="19.2" fill="rgb(187,187,187))">互联网宗教信息服务许可证编号：京（2022）0000043</text>
  <text x="65.0" y="50.3" font-size="19.2" fill="rgb(187,187,187))">药品医疗器械网络信息服务备案（京）网药械信息备字（2021）第00159号</text>
  <text x="65.0" y="50.3" font-size="19.2" fill="rgb(187,187,187))">医疗器械网络交易服务第三方平台备案凭证（京）网械平台备字（2020）第00002号</text>
  <text x="65.0" y="50.3" font-size="19.2" fill="rgb(187,187,187))">药品网络交易服务第三方平台备案凭证（京）网药平台备字〔2023〕第000002号</text>
  <text x="65.0" y="50.3" font-size="19.2" fill="rgb(187,187,187))">©2026 Baidu</text>
</svg>
